<svg width="100" height="100" viewBox="0 0 100 100" fill="none" xmlns="http://www.w3.org/2000/svg">
<path d="M50 99.5C22.6619 99.5 0.5 77.3381 0.5 50C0.5 22.6619 22.6619 0.5 50 0.5C77.3381 0.5 99.5 22.6619 99.5 50C99.5 77.3381 77.3381 99.5 50 99.5Z" fill="#2C2C2C"/>
<path d="M50 99.5C22.6619 99.5 0.5 77.3381 0.5 50C0.5 22.6619 22.6619 0.5 50 0.5C77.3381 0.5 99.5 22.6619 99.5 50C99.5 77.3381 77.3381 99.5 50 99.5Z" stroke="#2C2C2C" stroke-linecap="round"/>
<path d="M50 18.3334L59.785 38.1567L81.6667 41.355L65.8333 56.7767L69.57 78.5634L50 68.2717L30.43 78.5634L34.1667 56.7767L18.3333 41.355L40.215 38.1567L50 18.3334Z" stroke="#B3B3B3" stroke-width="3" stroke-linecap="round" stroke-linejoin="round"/>
</svg>
